<svg xmlns="http://www.w3.org/2000/svg" width="45" height="45"><g style="fill:gray;fill-opacity:1;fill-rule:evenodd;stroke:#000;stroke-width:1.5;stroke-linecap:round;stroke-linejoin:round;stroke-miterlimit:4;stroke-dasharray:none;stroke-opacity:1"><path d="M9 13a2 2 0 1 1-4 0 2 2 0 1 1 4 0z" style="fill:gray" transform="translate(-1 -1)"/><path d="M9 13a2 2 0 1 1-4 0 2 2 0 1 1 4 0z" style="fill:gray" transform="translate(15.5 -5.5)"/><path d="M9 13a2 2 0 1 1-4 0 2 2 0 1 1 4 0z" style="fill:gray" transform="translate(32 -1)"/><path d="M9 13a2 2 0 1 1-4 0 2 2 0 1 1 4 0z" style="fill:gray" transform="translate(7 -4.5)"/><path d="M9 13a2 2 0 1 1-4 0 2 2 0 1 1 4 0z" style="fill:gray" transform="translate(24 -4)"/><path d="M9 26c8.5-1.5 21-1.5 27 0l2-12-7 11V11l-5.5 13.5-3-15-3 15-5.5-14V25L7 14Z" style="stroke-linecap:butt;fill:gray"/><path d="M9 26c0 2 1.5 2 2.5 4 1 1.5 1 1 .5 3.5-1.5 1-1.5 2.5-1.5 2.5-1.5 1.5.5 2.5.5 2.5 6.5 1 16.5 1 23 0 0 0 1.5-1 0-2.5 0 0 .5-1.5-1-2.5-.5-2.5-.5-2 .5-3.5 1-2 2.5-2 2.5-4-8.5-1.5-18.5-1.5-27 0z" style="stroke-linecap:butt;fill:gray"/><path d="M11.5 30c3.5-1 18.5-1 22 0M12 33.5c6-1 15-1 21 0" style="fill:gray"/></g></svg>